<?xml version="1.0" encoding="UTF-8"?>
<mxfile host="app.diagrams.net" agent="Mozilla/5.0 (Windows NT 10.0; Win64; x64) AppleWebKit/537.36 (KHTML, like Gecko) Chrome/137.0.0.0 Safari/537.36 OPR/121.0.0.0" version="28.2.7">
  <diagram name="Página-1" id="atXci0JsdD9UoHDuVCLJ">
    <mxGraphModel dx="976" dy="575" grid="1" gridSize="10" guides="1" tooltips="1" connect="1" arrows="1" fold="1" page="1" pageScale="1" pageWidth="827" pageHeight="1169" math="0" shadow="0">
      <root>
        <mxCell id="0" />
        <mxCell id="1" parent="0" />
        <mxCell id="2" value="&amp;nbsp; &amp;nbsp; &amp;nbsp; Dispositivo do Usuário" style="shape=cube;whiteSpace=wrap;html=1;fontStyle=1;verticalAlign=top;align=left;spacingLeft=5;container=1;collapsible=0;fillColor=#F5F5F5;strokeColor=#666666;fontColor=#333333;" vertex="1" parent="1">
          <mxGeometry x="80" y="160" width="240" height="200" as="geometry" />
        </mxCell>
        <mxCell id="3" value="&amp;lt;&amp;lt;artifact&amp;gt;&amp;gt;&lt;br&gt;&lt;b&gt;Interface de Usuário&lt;/b&gt;&lt;br&gt;(Navegador Web)" style="shape=artifact;whiteSpace=wrap;html=1;verticalAlign=top;align=center;spacingTop=5;fillColor=#DAE8FC;strokeColor=#6C8EBF;" vertex="1" parent="2">
          <mxGeometry x="50" y="60" width="160" height="80" as="geometry" />
        </mxCell>
        <mxCell id="4" value="&amp;nbsp; &amp;nbsp; &amp;nbsp; &amp;nbsp;Servidor de Aplicação Web" style="shape=cube;whiteSpace=wrap;html=1;fontStyle=1;verticalAlign=top;align=left;spacingLeft=5;container=1;collapsible=0;fillColor=#F5F5F5;strokeColor=#666666;fontColor=#333333;" vertex="1" parent="1">
          <mxGeometry x="90" y="460" width="240" height="200" as="geometry" />
        </mxCell>
        <mxCell id="5" value="&amp;lt;&amp;lt;artifact&amp;gt;&amp;gt;&lt;br&gt;&lt;b&gt;SGO - Backend&lt;/b&gt;&lt;br&gt;(Módulos de Gestão, Inscrição, Alocação, Relatórios)" style="shape=artifact;whiteSpace=wrap;html=1;verticalAlign=top;align=center;spacingTop=5;fillColor=#DAE8FC;strokeColor=#6C8EBF;" vertex="1" parent="4">
          <mxGeometry x="40" y="50" width="180" height="100" as="geometry" />
        </mxCell>
        <mxCell id="6" value="&amp;nbsp; &amp;nbsp; &amp;nbsp; &amp;nbsp; &amp;nbsp;Servidor de Banco de Dados" style="shape=cube;whiteSpace=wrap;html=1;fontStyle=1;verticalAlign=top;align=left;spacingLeft=5;container=1;collapsible=0;fillColor=#F5F5F5;strokeColor=#666666;fontColor=#333333;" vertex="1" parent="1">
          <mxGeometry x="440" y="280" width="240" height="200" as="geometry" />
        </mxCell>
        <mxCell id="7" value="&amp;lt;&amp;lt;database&amp;gt;&amp;gt;&lt;br&gt;&lt;b&gt;Banco de Dados&lt;/b&gt;&lt;br&gt;(SGO-DB)" style="shape=cylinder3;size=25;direction=south;align=center;spacingTop=5;verticalAlign=top;fontStyle=0;html=1;whiteSpace=wrap;fillColor=#FFF2CC;strokeColor=#D6B656;" vertex="1" parent="6">
          <mxGeometry x="60" y="70" width="120" height="90" as="geometry" />
        </mxCell>
        <mxCell id="8" value="Comunicação HTTP/S" style="endArrow=classic;html=1;rounded=0;" edge="1" parent="1" source="2" target="4">
          <mxGeometry width="50" height="50" relative="1" as="geometry">
            <mxPoint x="350" y="260" as="sourcePoint" />
            <mxPoint x="410" y="260" as="targetPoint" />
            <mxPoint as="offset" />
          </mxGeometry>
        </mxCell>
        <mxCell id="9" value="Conexão JDBC/TCP" style="endArrow=classic;html=1;rounded=0;" edge="1" parent="1" source="4" target="6">
          <mxGeometry width="50" height="50" relative="1" as="geometry">
            <mxPoint x="710" y="260" as="sourcePoint" />
            <mxPoint x="770" y="260" as="targetPoint" />
          </mxGeometry>
        </mxCell>
      </root>
    </mxGraphModel>
  </diagram>
</mxfile>
